<svg xmlns="http://www.w3.org/2000/svg" width="828" height="260" viewBox="0 0 828 260" role="img" aria-label="Lenguajes más usados: TypeScript 65.0%, Python 22.4%, C# 5.9%, JavaScript 4.1%, CSS 1.9%, Vim Script 0.4%, HTML 0.3%">
  <style>
    text{font-family:-apple-system, 'Segoe UI', system-ui, 'Helvetica Neue', Arial, sans-serif} .m{font-family:ui-monospace, 'SF Mono', 'Cascadia Code', Consolas, monospace}
    @keyframes in{from{opacity:0;transform:translateY(6px)}to{opacity:1;transform:none}}
    @keyframes draw{from{transform:scaleX(0)}to{transform:scaleX(1)}}
    .a{opacity:0;animation:in .6s cubic-bezier(.2,.7,.2,1) both}
    .d{transform-origin:left center;transform-box:fill-box;animation:draw .9s cubic-bezier(.2,.7,.2,1) both}
    .b{transform-origin:left center;transform-box:fill-box;animation:draw 1.1s cubic-bezier(.2,.7,.2,1) both}
    @media (prefers-reduced-motion:reduce){.a,.d,.b{animation:none;opacity:1}}
  </style>
  <g transform="translate(21 0)">
    <rect class="d" x="0" y="0" width="28" height="3" rx="1.5" fill="#58a6ff"/>
    <text class="a m" x="0" y="29" font-size="13" font-weight="600" letter-spacing="1.2" fill="#8b949e" style="animation-delay:.1s">LENGUAJES MÁS USADOS</text>
    <rect class="d" x="0" y="44" width="774" height="1" fill="#30363d" style="animation-delay:0.00s"/>
  <g class="a" style="animation-delay:0.25s">
    <rect x="0" y="55" width="8" height="8" rx="2" fill="#3178c6"/>
    <text x="22" y="64" font-size="14" fill="#e6edf3">TypeScript</text>
  </g>
  <rect x="176" y="56" width="518" height="6" rx="3" fill="#21262d"/>
  <rect class="b" x="176" y="56" width="336.70" height="6" rx="3" fill="#3178c6" style="animation-delay:0.25s"/>
  <text class="a m" x="774" y="63.5" font-size="13" fill="#8b949e" text-anchor="end" style="animation-delay:0.75s">65.0%</text>
  <rect class="d" x="0" y="74" width="774" height="1" fill="#30363d" style="animation-delay:0.06s"/>
  <g class="a" style="animation-delay:0.34s">
    <rect x="0" y="85" width="8" height="8" rx="2" fill="#3572A5"/>
    <text x="22" y="94" font-size="14" fill="#e6edf3">Python</text>
  </g>
  <rect x="176" y="86" width="518" height="6" rx="3" fill="#21262d"/>
  <rect class="b" x="176" y="86" width="116.03" height="6" rx="3" fill="#3572A5" style="animation-delay:0.34s"/>
  <text class="a m" x="774" y="93.5" font-size="13" fill="#8b949e" text-anchor="end" style="animation-delay:0.84s">22.4%</text>
  <rect class="d" x="0" y="104" width="774" height="1" fill="#30363d" style="animation-delay:0.12s"/>
  <g class="a" style="animation-delay:0.43s">
    <rect x="0" y="115" width="8" height="8" rx="2" fill="#178600"/>
    <text x="22" y="124" font-size="14" fill="#e6edf3">C#</text>
  </g>
  <rect x="176" y="116" width="518" height="6" rx="3" fill="#21262d"/>
  <rect class="b" x="176" y="116" width="30.56" height="6" rx="3" fill="#178600" style="animation-delay:0.43s"/>
  <text class="a m" x="774" y="123.5" font-size="13" fill="#8b949e" text-anchor="end" style="animation-delay:0.93s">5.9%</text>
  <rect class="d" x="0" y="134" width="774" height="1" fill="#30363d" style="animation-delay:0.18s"/>
  <g class="a" style="animation-delay:0.52s">
    <rect x="0" y="145" width="8" height="8" rx="2" fill="#f1e05a"/>
    <text x="22" y="154" font-size="14" fill="#e6edf3">JavaScript</text>
  </g>
  <rect x="176" y="146" width="518" height="6" rx="3" fill="#21262d"/>
  <rect class="b" x="176" y="146" width="21.24" height="6" rx="3" fill="#f1e05a" style="animation-delay:0.52s"/>
  <text class="a m" x="774" y="153.5" font-size="13" fill="#8b949e" text-anchor="end" style="animation-delay:1.02s">4.1%</text>
  <rect class="d" x="0" y="164" width="774" height="1" fill="#30363d" style="animation-delay:0.24s"/>
  <g class="a" style="animation-delay:0.61s">
    <rect x="0" y="175" width="8" height="8" rx="2" fill="#663399"/>
    <text x="22" y="184" font-size="14" fill="#e6edf3">CSS</text>
  </g>
  <rect x="176" y="176" width="518" height="6" rx="3" fill="#21262d"/>
  <rect class="b" x="176" y="176" width="9.84" height="6" rx="3" fill="#663399" style="animation-delay:0.61s"/>
  <text class="a m" x="774" y="183.5" font-size="13" fill="#8b949e" text-anchor="end" style="animation-delay:1.11s">1.9%</text>
  <rect class="d" x="0" y="194" width="774" height="1" fill="#30363d" style="animation-delay:0.30s"/>
  <g class="a" style="animation-delay:0.70s">
    <rect x="0" y="205" width="8" height="8" rx="2" fill="#199f4b"/>
    <text x="22" y="214" font-size="14" fill="#e6edf3">Vim Script</text>
  </g>
  <rect x="176" y="206" width="518" height="6" rx="3" fill="#21262d"/>
  <rect class="b" x="176" y="206" width="3.00" height="6" rx="3" fill="#199f4b" style="animation-delay:0.70s"/>
  <text class="a m" x="774" y="213.5" font-size="13" fill="#8b949e" text-anchor="end" style="animation-delay:1.20s">0.4%</text>
  <rect class="d" x="0" y="224" width="774" height="1" fill="#30363d" style="animation-delay:0.36s"/>
  <g class="a" style="animation-delay:0.79s">
    <rect x="0" y="235" width="8" height="8" rx="2" fill="#e34c26"/>
    <text x="22" y="244" font-size="14" fill="#e6edf3">HTML</text>
  </g>
  <rect x="176" y="236" width="518" height="6" rx="3" fill="#21262d"/>
  <rect class="b" x="176" y="236" width="3.00" height="6" rx="3" fill="#e34c26" style="animation-delay:0.79s"/>
  <text class="a m" x="774" y="243.5" font-size="13" fill="#8b949e" text-anchor="end" style="animation-delay:1.29s">0.3%</text>
    <rect class="d" x="0" y="254" width="774" height="1" fill="#30363d" style="animation-delay:0.42s"/>
  </g>
</svg>
